<?xml version="1.0" standalone="no"?>
<!DOCTYPE svg PUBLIC "-//W3C//DTD SVG 20010904//EN"
 "http://www.w3.org/TR/2001/REC-SVG-20010904/DTD/svg10.dtd">
<svg version="1.0" xmlns="http://www.w3.org/2000/svg"
 width="1392.000000pt" height="1392.000000pt" viewBox="0 0 1392.000000 1392.000000"
 preserveAspectRatio="xMidYMid meet">
<metadata>
Created by potrace 1.11, written by Peter Selinger 2001-2013
</metadata>
<g transform="translate(0.000000,1392.000000) scale(0.100000,-0.100000)"
fill="#000000" stroke="none">
<path d="M6989 13636 c-2 -2 -26 -7 -54 -10 -48 -5 -80 -10 -135 -21 -14 -3
-34 -7 -45 -9 -11 -2 -38 -9 -60 -14 -22 -6 -51 -13 -65 -16 -122 -24 -807
-256 -1005 -341 -16 -7 -106 -43 -200 -80 -651 -259 -1182 -540 -1334 -704
-97 -107 -171 -287 -171 -421 0 -69 22 -170 50 -234 27 -63 97 -167 155 -231
134 -147 211 -318 230 -511 8 -78 10 -90 26 -159 14 -62 58 -135 81 -135 10 0
17 -3 16 -7 -1 -5 5 -42 15 -83 9 -41 19 -97 23 -125 4 -27 8 -57 9 -66 27
-147 24 -498 -5 -639 -5 -25 -9 -48 -10 -51 0 -8 -92 -44 -102 -41 -5 1 -8 -3
-8 -8 0 -6 -6 -10 -14 -10 -30 0 -311 -134 -444 -213 -46 -27 -85 -47 -86 -45
-2 1 -21 30 -43 63 -217 322 -449 486 -727 511 -79 7 -79 7 -86 5 -3 -1 -31
-3 -64 -6 -163 -10 -311 -82 -394 -190 -42 -54 -92 -147 -86 -157 3 -4 1 -8
-4 -8 -6 0 -13 -17 -17 -37 -4 -21 -9 -42 -12 -47 -16 -25 -22 -229 -10 -301
4 -22 10 -56 13 -75 4 -19 11 -41 17 -47 5 -7 7 -13 4 -13 -19 0 76 -205 138
-300 60 -92 70 -104 162 -196 l82 -82 -70 -52 c-39 -29 -78 -60 -87 -69 -77
-74 -76 -74 -118 -56 -75 31 -187 120 -213 168 -17 32 -63 57 -96 55 -35 -3
-85 -49 -85 -77 0 -41 28 -89 87 -147 70 -71 103 -97 165 -131 l47 -26 -22
-27 c-12 -14 -31 -39 -42 -54 -83 -116 -83 -116 -130 -116 -24 0 -57 5 -72 11
-73 30 -120 53 -143 69 -58 41 -116 67 -143 64 -34 -3 -77 -29 -78 -47 0 -6
-2 -23 -5 -36 -2 -13 3 -34 11 -47 29 -45 213 -148 316 -178 l57 -17 -45 -102
c-67 -152 -80 -186 -89 -237 -3 -14 -9 -27 -15 -28 -5 -2 -7 -7 -4 -11 2 -5 0
-23 -6 -42 -6 -19 -12 -45 -15 -59 -3 -14 -7 -32 -9 -40 -3 -8 -7 -33 -11 -55
-8 -49 -12 -70 -14 -70 -1 0 -3 -13 -5 -30 -2 -16 -7 -57 -11 -90 -14 -112 -7
-524 10 -605 5 -22 15 -79 21 -120 1 -8 5 -26 9 -40 3 -14 8 -34 10 -45 1 -11
5 -27 8 -35 3 -8 16 -51 27 -95 24 -88 62 -198 91 -260 69 -154 95 -205 101
-205 9 0 5 -120 -6 -200 -3 -25 -8 -76 -10 -115 -5 -69 -9 -125 -20 -255 -7
-85 -16 -211 -20 -280 -2 -30 -4 -55 -4 -55 -1 0 -4 -49 -7 -110 -2 -60 -6
-141 -9 -180 -4 -72 -13 -285 -20 -480 -20 -514 -26 -2035 -12 -2990 9 -537 9
-626 7 -640 -2 -6 -1 -12 0 -15 1 -3 3 -75 4 -160 2 -85 6 -163 11 -173 14
-34 81 -55 115 -37 14 7 20 7 20 0 0 -7 1442 -10 4620 -10 l4620 0 30 27 c32
30 32 31 45 203 6 80 11 162 22 415 9 204 9 1531 -1 1900 -9 361 -9 371 -1
384 3 6 3 11 -2 11 -4 0 -9 48 -9 108 -8 645 -27 1447 -39 1652 -2 41 -6 122
-9 180 -3 58 -8 143 -11 190 -3 47 -8 117 -10 155 -2 39 -4 70 -5 70 -1 0 -3
35 -6 78 -3 75 -2 80 29 125 105 151 262 486 283 607 3 17 9 35 14 40 7 9 21
62 35 130 21 106 33 174 39 213 2 19 7 36 10 40 3 3 1 11 -5 19 -6 7 -8 13 -3
13 5 0 11 26 13 58 6 89 5 361 -2 422 -15 137 -19 163 -32 225 -4 17 -8 39
-11 50 -6 35 -22 99 -32 133 -6 18 -11 33 -11 35 0 1 -4 15 -10 30 -6 16 -11
32 -11 37 0 12 -69 189 -83 211 -6 10 -9 20 -7 22 3 3 37 7 75 10 174 14 263
60 272 142 3 31 -2 41 -29 67 -28 26 -38 29 -72 25 -21 -3 -42 -10 -45 -16
-13 -21 -70 -33 -182 -38 l-116 -5 -52 77 c-56 83 -56 83 -101 136 -16 20 -30
39 -30 42 0 2 15 10 33 17 62 23 182 85 199 103 10 9 22 17 27 17 4 0 31 22
59 48 78 74 87 118 36 172 -16 17 -33 25 -51 24 -16 -1 -34 -3 -41 -3 -6 -1
-22 -13 -35 -27 -55 -65 -165 -131 -294 -178 l-73 -26 -37 33 c-21 17 -40 35
-43 38 -10 12 -150 117 -161 121 -11 4 10 49 31 68 10 9 88 135 127 205 42 76
92 192 103 240 1 6 7 19 13 30 6 11 11 31 13 45 1 14 3 25 4 25 14 0 20 268 8
315 -4 14 -9 34 -11 45 -28 123 -165 293 -288 356 -111 56 -319 81 -451 54
-32 -7 -58 -10 -58 -8 0 3 -7 0 -15 -7 -8 -7 -15 -10 -15 -7 0 10 -145 -51
-201 -85 -113 -69 -235 -181 -339 -313 -30 -39 -60 -76 -67 -83 -7 -7 -13 -17
-13 -22 0 -23 -35 -14 -106 27 -175 101 -428 220 -662 313 -40 15 -40 16 -53
82 -20 103 -27 147 -34 223 -3 33 -7 85 -10 115 -6 68 -7 369 -1 430 3 25 8
77 12 115 4 39 7 79 6 90 0 11 -3 56 -5 99 -4 81 12 172 46 263 24 63 111 231
194 370 196 333 222 411 177 539 -34 97 -96 186 -219 310 -187 190 -336 299
-720 527 -30 18 -260 131 -415 205 -113 54 -227 126 -393 251 -177 132 -303
206 -387 227 -8 2 -33 8 -55 14 -37 11 -328 24 -336 16z"/>
</g>
</svg>
